<mxfile host="app.diagrams.net" modified="2023-12-02T06:35:56.253Z" agent="Mozilla/5.0 (Windows NT 10.0; Win64; x64) AppleWebKit/537.36 (KHTML, like Gecko) Chrome/119.0.0.0 Safari/537.36" etag="4x7_2rXWBAhxybmzXTZV" version="22.1.5" type="device">
  <diagram id="R2lEEEUBdFMjLlhIrx00" name="Page-1">
    <mxGraphModel dx="2537" dy="1034" grid="1" gridSize="10" guides="1" tooltips="1" connect="1" arrows="1" fold="1" page="1" pageScale="1" pageWidth="850" pageHeight="1100" math="0" shadow="0" extFonts="Permanent Marker^https://fonts.googleapis.com/css?family=Permanent+Marker">
      <root>
        <mxCell id="0" />
        <mxCell id="1" parent="0" />
        <mxCell id="Y_Nko6VUm1h7sYiDKznF-49" style="rounded=0;orthogonalLoop=1;jettySize=auto;html=1;exitX=0.5;exitY=1;exitDx=0;exitDy=0;entryX=0.5;entryY=0;entryDx=0;entryDy=0;" parent="1" source="Y_Nko6VUm1h7sYiDKznF-1" target="Y_Nko6VUm1h7sYiDKznF-43" edge="1">
          <mxGeometry relative="1" as="geometry" />
        </mxCell>
        <mxCell id="Y_Nko6VUm1h7sYiDKznF-51" style="rounded=0;orthogonalLoop=1;jettySize=auto;html=1;exitX=0.5;exitY=1;exitDx=0;exitDy=0;entryX=0.5;entryY=1;entryDx=0;entryDy=0;" parent="1" source="Y_Nko6VUm1h7sYiDKznF-1" target="Y_Nko6VUm1h7sYiDKznF-7" edge="1">
          <mxGeometry relative="1" as="geometry" />
        </mxCell>
        <mxCell id="Y_Nko6VUm1h7sYiDKznF-53" style="rounded=0;orthogonalLoop=1;jettySize=auto;html=1;exitX=0.5;exitY=1;exitDx=0;exitDy=0;entryX=0.5;entryY=1;entryDx=0;entryDy=0;" parent="1" source="Y_Nko6VUm1h7sYiDKznF-1" target="Y_Nko6VUm1h7sYiDKznF-35" edge="1">
          <mxGeometry relative="1" as="geometry" />
        </mxCell>
        <mxCell id="Y_Nko6VUm1h7sYiDKznF-54" style="rounded=0;orthogonalLoop=1;jettySize=auto;html=1;exitX=0.5;exitY=1;exitDx=0;exitDy=0;entryX=0.5;entryY=0;entryDx=0;entryDy=0;" parent="1" source="Y_Nko6VUm1h7sYiDKznF-1" target="Y_Nko6VUm1h7sYiDKznF-39" edge="1">
          <mxGeometry relative="1" as="geometry" />
        </mxCell>
        <mxCell id="Y_Nko6VUm1h7sYiDKznF-55" style="rounded=0;orthogonalLoop=1;jettySize=auto;html=1;exitX=0.5;exitY=1;exitDx=0;exitDy=0;entryX=0.5;entryY=1;entryDx=0;entryDy=0;" parent="1" source="Y_Nko6VUm1h7sYiDKznF-1" target="Y_Nko6VUm1h7sYiDKznF-38" edge="1">
          <mxGeometry relative="1" as="geometry" />
        </mxCell>
        <mxCell id="Y_Nko6VUm1h7sYiDKznF-58" style="rounded=0;orthogonalLoop=1;jettySize=auto;html=1;exitX=0.5;exitY=1;exitDx=0;exitDy=0;entryX=0.5;entryY=0;entryDx=0;entryDy=0;" parent="1" source="Y_Nko6VUm1h7sYiDKznF-1" target="Y_Nko6VUm1h7sYiDKznF-36" edge="1">
          <mxGeometry relative="1" as="geometry" />
        </mxCell>
        <mxCell id="Y_Nko6VUm1h7sYiDKznF-60" style="rounded=0;orthogonalLoop=1;jettySize=auto;html=1;exitX=0.5;exitY=1;exitDx=0;exitDy=0;entryX=0.5;entryY=0;entryDx=0;entryDy=0;" parent="1" source="Y_Nko6VUm1h7sYiDKznF-1" target="Y_Nko6VUm1h7sYiDKznF-59" edge="1">
          <mxGeometry relative="1" as="geometry" />
        </mxCell>
        <mxCell id="Y_Nko6VUm1h7sYiDKznF-1" value="ΙΑΤΡΟΣ" style="whiteSpace=wrap;html=1;align=center;gradientColor=none;glass=0;" parent="1" vertex="1">
          <mxGeometry x="610" y="200" width="100" height="40" as="geometry" />
        </mxCell>
        <mxCell id="Y_Nko6VUm1h7sYiDKznF-27" style="rounded=0;orthogonalLoop=1;jettySize=auto;html=1;exitX=0.5;exitY=1;exitDx=0;exitDy=0;entryX=0.5;entryY=0;entryDx=0;entryDy=0;" parent="1" source="Y_Nko6VUm1h7sYiDKznF-2" target="Y_Nko6VUm1h7sYiDKznF-8" edge="1">
          <mxGeometry relative="1" as="geometry" />
        </mxCell>
        <mxCell id="Y_Nko6VUm1h7sYiDKznF-28" style="rounded=0;orthogonalLoop=1;jettySize=auto;html=1;exitX=0.5;exitY=1;exitDx=0;exitDy=0;entryX=0.5;entryY=0;entryDx=0;entryDy=0;" parent="1" source="Y_Nko6VUm1h7sYiDKznF-2" target="Y_Nko6VUm1h7sYiDKznF-11" edge="1">
          <mxGeometry relative="1" as="geometry" />
        </mxCell>
        <mxCell id="Y_Nko6VUm1h7sYiDKznF-29" style="rounded=0;orthogonalLoop=1;jettySize=auto;html=1;entryX=1;entryY=0.5;entryDx=0;entryDy=0;exitX=0.5;exitY=1;exitDx=0;exitDy=0;" parent="1" source="Y_Nko6VUm1h7sYiDKznF-2" target="Y_Nko6VUm1h7sYiDKznF-5" edge="1">
          <mxGeometry relative="1" as="geometry">
            <mxPoint x="60" y="200" as="sourcePoint" />
          </mxGeometry>
        </mxCell>
        <mxCell id="Y_Nko6VUm1h7sYiDKznF-30" style="rounded=0;orthogonalLoop=1;jettySize=auto;html=1;exitX=0.41;exitY=0.996;exitDx=0;exitDy=0;entryX=0.5;entryY=1;entryDx=0;entryDy=0;exitPerimeter=0;" parent="1" source="Y_Nko6VUm1h7sYiDKznF-2" target="Y_Nko6VUm1h7sYiDKznF-4" edge="1">
          <mxGeometry relative="1" as="geometry" />
        </mxCell>
        <mxCell id="Y_Nko6VUm1h7sYiDKznF-31" style="rounded=0;orthogonalLoop=1;jettySize=auto;html=1;exitX=0.5;exitY=1;exitDx=0;exitDy=0;entryX=0.5;entryY=1;entryDx=0;entryDy=0;" parent="1" source="Y_Nko6VUm1h7sYiDKznF-2" target="Y_Nko6VUm1h7sYiDKznF-10" edge="1">
          <mxGeometry relative="1" as="geometry" />
        </mxCell>
        <mxCell id="Y_Nko6VUm1h7sYiDKznF-32" style="rounded=0;orthogonalLoop=1;jettySize=auto;html=1;exitX=0.5;exitY=1;exitDx=0;exitDy=0;entryX=0.5;entryY=1;entryDx=0;entryDy=0;" parent="1" source="Y_Nko6VUm1h7sYiDKznF-2" target="Y_Nko6VUm1h7sYiDKznF-9" edge="1">
          <mxGeometry relative="1" as="geometry" />
        </mxCell>
        <mxCell id="Y_Nko6VUm1h7sYiDKznF-33" style="rounded=0;orthogonalLoop=1;jettySize=auto;html=1;exitX=0.5;exitY=1;exitDx=0;exitDy=0;entryX=0.5;entryY=1;entryDx=0;entryDy=0;" parent="1" source="Y_Nko6VUm1h7sYiDKznF-2" target="Y_Nko6VUm1h7sYiDKznF-13" edge="1">
          <mxGeometry relative="1" as="geometry" />
        </mxCell>
        <mxCell id="EnXhkpWwfhK2mEVkRxN7-15" style="rounded=0;orthogonalLoop=1;jettySize=auto;html=1;exitX=0.75;exitY=0;exitDx=0;exitDy=0;entryX=0.5;entryY=1;entryDx=0;entryDy=0;" edge="1" parent="1" source="Y_Nko6VUm1h7sYiDKznF-2" target="EnXhkpWwfhK2mEVkRxN7-7">
          <mxGeometry relative="1" as="geometry" />
        </mxCell>
        <mxCell id="Y_Nko6VUm1h7sYiDKznF-2" value="ΑΣΘΕΝΗΣ" style="whiteSpace=wrap;html=1;align=center;" parent="1" vertex="1">
          <mxGeometry x="60" y="200" width="100" height="40" as="geometry" />
        </mxCell>
        <mxCell id="Y_Nko6VUm1h7sYiDKznF-4" value="Α.Φ.Μ" style="ellipse;whiteSpace=wrap;html=1;align=center;" parent="1" vertex="1">
          <mxGeometry x="-170" y="110" width="100" height="40" as="geometry" />
        </mxCell>
        <mxCell id="Y_Nko6VUm1h7sYiDKznF-5" value="A.M.K.A" style="ellipse;whiteSpace=wrap;html=1;align=center;fontStyle=4;" parent="1" vertex="1">
          <mxGeometry x="-190" y="180" width="100" height="40" as="geometry" />
        </mxCell>
        <mxCell id="Y_Nko6VUm1h7sYiDKznF-7" value="Α.Φ.Μ" style="ellipse;whiteSpace=wrap;html=1;align=center;" parent="1" vertex="1">
          <mxGeometry x="740" y="60" width="100" height="40" as="geometry" />
        </mxCell>
        <mxCell id="Y_Nko6VUm1h7sYiDKznF-24" style="rounded=0;orthogonalLoop=1;jettySize=auto;html=1;exitX=0.5;exitY=1;exitDx=0;exitDy=0;entryX=0.5;entryY=0;entryDx=0;entryDy=0;" parent="1" source="Y_Nko6VUm1h7sYiDKznF-8" target="Y_Nko6VUm1h7sYiDKznF-15" edge="1">
          <mxGeometry relative="1" as="geometry" />
        </mxCell>
        <mxCell id="Y_Nko6VUm1h7sYiDKznF-26" style="rounded=0;orthogonalLoop=1;jettySize=auto;html=1;exitX=0.5;exitY=1;exitDx=0;exitDy=0;entryX=0.5;entryY=0;entryDx=0;entryDy=0;" parent="1" source="Y_Nko6VUm1h7sYiDKznF-8" target="Y_Nko6VUm1h7sYiDKznF-16" edge="1">
          <mxGeometry relative="1" as="geometry" />
        </mxCell>
        <mxCell id="Y_Nko6VUm1h7sYiDKznF-8" value="Διεύθυνση" style="ellipse;whiteSpace=wrap;html=1;align=center;" parent="1" vertex="1">
          <mxGeometry x="-40" y="280" width="100" height="40" as="geometry" />
        </mxCell>
        <mxCell id="Y_Nko6VUm1h7sYiDKznF-9" value="Επίθετο" style="ellipse;whiteSpace=wrap;html=1;align=center;" parent="1" vertex="1">
          <mxGeometry x="20" y="60" width="100" height="40" as="geometry" />
        </mxCell>
        <mxCell id="Y_Nko6VUm1h7sYiDKznF-10" value="Όνομα" style="ellipse;whiteSpace=wrap;html=1;align=center;" parent="1" vertex="1">
          <mxGeometry x="-90" y="70" width="100" height="40" as="geometry" />
        </mxCell>
        <mxCell id="Y_Nko6VUm1h7sYiDKznF-11" value="τηλέφωνο" style="ellipse;shape=doubleEllipse;margin=3;whiteSpace=wrap;html=1;align=center;" parent="1" vertex="1">
          <mxGeometry x="-170" y="240" width="100" height="40" as="geometry" />
        </mxCell>
        <mxCell id="Y_Nko6VUm1h7sYiDKznF-13" value="Email" style="ellipse;whiteSpace=wrap;html=1;align=center;" parent="1" vertex="1">
          <mxGeometry x="130" y="60" width="100" height="40" as="geometry" />
        </mxCell>
        <mxCell id="Y_Nko6VUm1h7sYiDKznF-15" value="Πόλη" style="ellipse;whiteSpace=wrap;html=1;align=center;" parent="1" vertex="1">
          <mxGeometry x="-150" y="360" width="100" height="40" as="geometry" />
        </mxCell>
        <mxCell id="Y_Nko6VUm1h7sYiDKznF-16" value="Νομός" style="ellipse;whiteSpace=wrap;html=1;align=center;" parent="1" vertex="1">
          <mxGeometry x="30" y="370" width="100" height="40" as="geometry" />
        </mxCell>
        <mxCell id="Y_Nko6VUm1h7sYiDKznF-35" value="Email" style="ellipse;whiteSpace=wrap;html=1;align=center;" parent="1" vertex="1">
          <mxGeometry x="800" y="110" width="100" height="40" as="geometry" />
        </mxCell>
        <mxCell id="Y_Nko6VUm1h7sYiDKznF-36" value="Όνομα" style="ellipse;whiteSpace=wrap;html=1;align=center;" parent="1" vertex="1">
          <mxGeometry x="540" y="120" width="100" height="40" as="geometry" />
        </mxCell>
        <mxCell id="Y_Nko6VUm1h7sYiDKznF-37" value="Επίθετο" style="ellipse;whiteSpace=wrap;html=1;align=center;" parent="1" vertex="1">
          <mxGeometry x="630" y="280" width="100" height="40" as="geometry" />
        </mxCell>
        <mxCell id="Y_Nko6VUm1h7sYiDKznF-38" value="A.M.K.A" style="ellipse;whiteSpace=wrap;html=1;align=center;fontStyle=4;" parent="1" vertex="1">
          <mxGeometry x="620" y="60" width="100" height="40" as="geometry" />
        </mxCell>
        <mxCell id="Y_Nko6VUm1h7sYiDKznF-39" value="τηλέφωνο" style="ellipse;shape=doubleEllipse;margin=3;whiteSpace=wrap;html=1;align=center;" parent="1" vertex="1">
          <mxGeometry x="850" y="180" width="100" height="40" as="geometry" />
        </mxCell>
        <mxCell id="Y_Nko6VUm1h7sYiDKznF-41" style="rounded=0;orthogonalLoop=1;jettySize=auto;html=1;exitX=0.5;exitY=1;exitDx=0;exitDy=0;entryX=0.5;entryY=0;entryDx=0;entryDy=0;" parent="1" source="Y_Nko6VUm1h7sYiDKznF-43" target="Y_Nko6VUm1h7sYiDKznF-45" edge="1">
          <mxGeometry relative="1" as="geometry">
            <mxPoint x="659.76" y="350" as="targetPoint" />
          </mxGeometry>
        </mxCell>
        <mxCell id="Y_Nko6VUm1h7sYiDKznF-42" style="rounded=0;orthogonalLoop=1;jettySize=auto;html=1;exitX=0.5;exitY=1;exitDx=0;exitDy=0;entryX=0.5;entryY=0;entryDx=0;entryDy=0;" parent="1" source="Y_Nko6VUm1h7sYiDKznF-43" target="zEavaUoaJ85FBfORmJAa-6" edge="1">
          <mxGeometry relative="1" as="geometry">
            <mxPoint x="870" y="360" as="targetPoint" />
          </mxGeometry>
        </mxCell>
        <mxCell id="Y_Nko6VUm1h7sYiDKznF-43" value="Διεύθυνση" style="ellipse;whiteSpace=wrap;html=1;align=center;" parent="1" vertex="1">
          <mxGeometry x="740" y="280" width="100" height="40" as="geometry" />
        </mxCell>
        <mxCell id="Y_Nko6VUm1h7sYiDKznF-45" value="Πόλη" style="ellipse;whiteSpace=wrap;html=1;align=center;" parent="1" vertex="1">
          <mxGeometry x="710" y="360" width="100" height="40" as="geometry" />
        </mxCell>
        <mxCell id="Y_Nko6VUm1h7sYiDKznF-57" style="rounded=0;orthogonalLoop=1;jettySize=auto;html=1;exitX=0.5;exitY=1;exitDx=0;exitDy=0;entryX=0.5;entryY=0;entryDx=0;entryDy=0;" parent="1" source="Y_Nko6VUm1h7sYiDKznF-1" target="Y_Nko6VUm1h7sYiDKznF-37" edge="1">
          <mxGeometry relative="1" as="geometry" />
        </mxCell>
        <mxCell id="Y_Nko6VUm1h7sYiDKznF-59" value="Ειδικότητα&amp;nbsp;" style="ellipse;shape=doubleEllipse;margin=3;whiteSpace=wrap;html=1;align=center;" parent="1" vertex="1">
          <mxGeometry x="870" y="240" width="100" height="40" as="geometry" />
        </mxCell>
        <mxCell id="Y_Nko6VUm1h7sYiDKznF-66" style="rounded=0;orthogonalLoop=1;jettySize=auto;html=1;exitX=0.5;exitY=0;exitDx=0;exitDy=0;entryX=0.5;entryY=1;entryDx=0;entryDy=0;" parent="1" source="Y_Nko6VUm1h7sYiDKznF-61" target="Y_Nko6VUm1h7sYiDKznF-65" edge="1">
          <mxGeometry relative="1" as="geometry" />
        </mxCell>
        <mxCell id="Y_Nko6VUm1h7sYiDKznF-61" value="ΘΑΛΑΜΟΣ ΕΞΕΤΑΣΗΣ" style="whiteSpace=wrap;html=1;align=center;" parent="1" vertex="1">
          <mxGeometry x="375" y="40" width="100" height="40" as="geometry" />
        </mxCell>
        <mxCell id="Y_Nko6VUm1h7sYiDKznF-65" value="Όνομα" style="ellipse;whiteSpace=wrap;html=1;align=center;fontStyle=4;" parent="1" vertex="1">
          <mxGeometry x="380" y="100" width="100" height="40" as="geometry" />
        </mxCell>
        <mxCell id="Y_Nko6VUm1h7sYiDKznF-79" style="rounded=0;orthogonalLoop=1;jettySize=auto;html=1;exitX=0.5;exitY=1;exitDx=0;exitDy=0;entryX=0.5;entryY=0;entryDx=0;entryDy=0;" parent="1" source="Y_Nko6VUm1h7sYiDKznF-69" target="Y_Nko6VUm1h7sYiDKznF-70" edge="1">
          <mxGeometry relative="1" as="geometry" />
        </mxCell>
        <mxCell id="Y_Nko6VUm1h7sYiDKznF-81" style="rounded=0;orthogonalLoop=1;jettySize=auto;html=1;exitX=0.5;exitY=1;exitDx=0;exitDy=0;entryX=0.5;entryY=0;entryDx=0;entryDy=0;" parent="1" source="Y_Nko6VUm1h7sYiDKznF-69" target="Y_Nko6VUm1h7sYiDKznF-74" edge="1">
          <mxGeometry relative="1" as="geometry" />
        </mxCell>
        <mxCell id="Y_Nko6VUm1h7sYiDKznF-82" style="rounded=0;orthogonalLoop=1;jettySize=auto;html=1;exitX=0.5;exitY=1;exitDx=0;exitDy=0;entryX=0.5;entryY=0;entryDx=0;entryDy=0;" parent="1" source="Y_Nko6VUm1h7sYiDKznF-69" target="Y_Nko6VUm1h7sYiDKznF-78" edge="1">
          <mxGeometry relative="1" as="geometry" />
        </mxCell>
        <mxCell id="Y_Nko6VUm1h7sYiDKznF-83" style="rounded=0;orthogonalLoop=1;jettySize=auto;html=1;exitX=0.5;exitY=1;exitDx=0;exitDy=0;entryX=0.5;entryY=0;entryDx=0;entryDy=0;" parent="1" source="Y_Nko6VUm1h7sYiDKznF-69" target="EnXhkpWwfhK2mEVkRxN7-46" edge="1">
          <mxGeometry relative="1" as="geometry" />
        </mxCell>
        <mxCell id="Y_Nko6VUm1h7sYiDKznF-69" value="ΘΑΛΑΜΟΣ ΝΟΣΗΛΕΙΑΣ" style="whiteSpace=wrap;html=1;align=center;" parent="1" vertex="1">
          <mxGeometry x="-60" y="560" width="100" height="40" as="geometry" />
        </mxCell>
        <mxCell id="Y_Nko6VUm1h7sYiDKznF-70" value="Αίθουσα" style="ellipse;whiteSpace=wrap;html=1;align=center;fontStyle=4;" parent="1" vertex="1">
          <mxGeometry x="-210" y="580" width="100" height="40" as="geometry" />
        </mxCell>
        <mxCell id="Y_Nko6VUm1h7sYiDKznF-74" value="Αριθμός κρεβατιών" style="ellipse;whiteSpace=wrap;html=1;align=center;" parent="1" vertex="1">
          <mxGeometry x="-40" y="660" width="100" height="40" as="geometry" />
        </mxCell>
        <mxCell id="Y_Nko6VUm1h7sYiDKznF-78" value="Όροφος" style="ellipse;whiteSpace=wrap;html=1;align=center;" parent="1" vertex="1">
          <mxGeometry x="-160" y="660" width="100" height="40" as="geometry" />
        </mxCell>
        <mxCell id="EnXhkpWwfhK2mEVkRxN7-16" style="rounded=0;orthogonalLoop=1;jettySize=auto;html=1;exitX=0.5;exitY=1;exitDx=0;exitDy=0;entryX=0.5;entryY=0;entryDx=0;entryDy=0;" edge="1" parent="1" source="zEavaUoaJ85FBfORmJAa-2" target="EnXhkpWwfhK2mEVkRxN7-5">
          <mxGeometry relative="1" as="geometry" />
        </mxCell>
        <mxCell id="EnXhkpWwfhK2mEVkRxN7-19" style="rounded=0;orthogonalLoop=1;jettySize=auto;html=1;exitX=0.5;exitY=1;exitDx=0;exitDy=0;entryX=0.5;entryY=0;entryDx=0;entryDy=0;" edge="1" parent="1" source="zEavaUoaJ85FBfORmJAa-2" target="EnXhkpWwfhK2mEVkRxN7-18">
          <mxGeometry relative="1" as="geometry" />
        </mxCell>
        <mxCell id="EnXhkpWwfhK2mEVkRxN7-29" style="rounded=0;orthogonalLoop=1;jettySize=auto;html=1;exitX=0.5;exitY=1;exitDx=0;exitDy=0;entryX=0.5;entryY=0;entryDx=0;entryDy=0;" edge="1" parent="1" source="zEavaUoaJ85FBfORmJAa-2" target="EnXhkpWwfhK2mEVkRxN7-28">
          <mxGeometry relative="1" as="geometry" />
        </mxCell>
        <mxCell id="zEavaUoaJ85FBfORmJAa-2" value="ΕΙΣΗΤΗΡΙΟ" style="whiteSpace=wrap;html=1;align=center;" parent="1" vertex="1">
          <mxGeometry x="600" y="650" width="100" height="40" as="geometry" />
        </mxCell>
        <mxCell id="EnXhkpWwfhK2mEVkRxN7-13" style="rounded=0;orthogonalLoop=1;jettySize=auto;html=1;exitX=0.5;exitY=1;exitDx=0;exitDy=0;entryX=0.5;entryY=0;entryDx=0;entryDy=0;" edge="1" parent="1" source="zEavaUoaJ85FBfORmJAa-3" target="EnXhkpWwfhK2mEVkRxN7-12">
          <mxGeometry relative="1" as="geometry" />
        </mxCell>
        <mxCell id="zEavaUoaJ85FBfORmJAa-3" value="ΚΛΙΝΙΚΗ" style="whiteSpace=wrap;html=1;align=center;" parent="1" vertex="1">
          <mxGeometry x="-50" y="440" width="100" height="40" as="geometry" />
        </mxCell>
        <mxCell id="EnXhkpWwfhK2mEVkRxN7-9" style="rounded=0;orthogonalLoop=1;jettySize=auto;html=1;exitX=0.5;exitY=1;exitDx=0;exitDy=0;entryX=0.5;entryY=0;entryDx=0;entryDy=0;" edge="1" parent="1" source="zEavaUoaJ85FBfORmJAa-4" target="EnXhkpWwfhK2mEVkRxN7-8">
          <mxGeometry relative="1" as="geometry" />
        </mxCell>
        <mxCell id="EnXhkpWwfhK2mEVkRxN7-10" style="rounded=0;orthogonalLoop=1;jettySize=auto;html=1;exitX=0.5;exitY=1;exitDx=0;exitDy=0;entryX=0.5;entryY=0;entryDx=0;entryDy=0;" edge="1" parent="1" source="zEavaUoaJ85FBfORmJAa-4" target="EnXhkpWwfhK2mEVkRxN7-6">
          <mxGeometry relative="1" as="geometry" />
        </mxCell>
        <mxCell id="zEavaUoaJ85FBfORmJAa-4" value="ΡΑΝΤΕΒΟΥ" style="whiteSpace=wrap;html=1;align=center;" parent="1" vertex="1">
          <mxGeometry x="310" y="280" width="100" height="40" as="geometry" />
        </mxCell>
        <mxCell id="zEavaUoaJ85FBfORmJAa-6" value="Νομός" style="ellipse;whiteSpace=wrap;html=1;align=center;" parent="1" vertex="1">
          <mxGeometry x="830" y="360" width="100" height="40" as="geometry" />
        </mxCell>
        <mxCell id="EnXhkpWwfhK2mEVkRxN7-5" value="Λόγος Εισαγωγής" style="ellipse;whiteSpace=wrap;html=1;align=center;" vertex="1" parent="1">
          <mxGeometry x="600" y="740" width="110" height="40" as="geometry" />
        </mxCell>
        <mxCell id="EnXhkpWwfhK2mEVkRxN7-6" value="Ημερομηνία" style="ellipse;whiteSpace=wrap;html=1;align=center;" vertex="1" parent="1">
          <mxGeometry x="400" y="360" width="100" height="40" as="geometry" />
        </mxCell>
        <mxCell id="EnXhkpWwfhK2mEVkRxN7-7" value="Ασφάλεια" style="ellipse;whiteSpace=wrap;html=1;align=center;" vertex="1" parent="1">
          <mxGeometry x="190" y="100" width="100" height="40" as="geometry" />
        </mxCell>
        <mxCell id="EnXhkpWwfhK2mEVkRxN7-8" value="Id_Ραντεβου" style="ellipse;whiteSpace=wrap;html=1;align=center;fontStyle=4;" vertex="1" parent="1">
          <mxGeometry x="230" y="350" width="100" height="40" as="geometry" />
        </mxCell>
        <mxCell id="EnXhkpWwfhK2mEVkRxN7-12" value="Όνομα κλινικής" style="ellipse;whiteSpace=wrap;html=1;align=center;fontStyle=4;" vertex="1" parent="1">
          <mxGeometry x="-110" y="500" width="100" height="40" as="geometry" />
        </mxCell>
        <mxCell id="EnXhkpWwfhK2mEVkRxN7-24" style="rounded=0;orthogonalLoop=1;jettySize=auto;html=1;exitX=0.5;exitY=1;exitDx=0;exitDy=0;entryX=0.5;entryY=0;entryDx=0;entryDy=0;" edge="1" parent="1" source="EnXhkpWwfhK2mEVkRxN7-14" target="EnXhkpWwfhK2mEVkRxN7-23">
          <mxGeometry relative="1" as="geometry" />
        </mxCell>
        <mxCell id="EnXhkpWwfhK2mEVkRxN7-26" style="rounded=0;orthogonalLoop=1;jettySize=auto;html=1;exitX=0.5;exitY=1;exitDx=0;exitDy=0;entryX=0.5;entryY=0;entryDx=0;entryDy=0;" edge="1" parent="1" source="EnXhkpWwfhK2mEVkRxN7-14" target="EnXhkpWwfhK2mEVkRxN7-25">
          <mxGeometry relative="1" as="geometry" />
        </mxCell>
        <mxCell id="EnXhkpWwfhK2mEVkRxN7-31" style="rounded=0;orthogonalLoop=1;jettySize=auto;html=1;exitX=0.5;exitY=1;exitDx=0;exitDy=0;" edge="1" parent="1" source="EnXhkpWwfhK2mEVkRxN7-14" target="EnXhkpWwfhK2mEVkRxN7-30">
          <mxGeometry relative="1" as="geometry" />
        </mxCell>
        <mxCell id="EnXhkpWwfhK2mEVkRxN7-14" value="ΕΞΙΤΗΡΙΟ" style="whiteSpace=wrap;html=1;align=center;" vertex="1" parent="1">
          <mxGeometry x="1020" y="650" width="100" height="40" as="geometry" />
        </mxCell>
        <mxCell id="EnXhkpWwfhK2mEVkRxN7-17" value="Σημειώσεις" style="ellipse;whiteSpace=wrap;html=1;align=center;" vertex="1" parent="1">
          <mxGeometry x="700" y="550" width="100" height="40" as="geometry" />
        </mxCell>
        <mxCell id="EnXhkpWwfhK2mEVkRxN7-18" value="Ημερομηνία Εισαγωγής" style="ellipse;whiteSpace=wrap;html=1;align=center;" vertex="1" parent="1">
          <mxGeometry x="720" y="740" width="100" height="40" as="geometry" />
        </mxCell>
        <mxCell id="EnXhkpWwfhK2mEVkRxN7-23" value="Ημερομηνία εξόδου" style="ellipse;whiteSpace=wrap;html=1;align=center;" vertex="1" parent="1">
          <mxGeometry x="1030" y="710" width="100" height="40" as="geometry" />
        </mxCell>
        <mxCell id="EnXhkpWwfhK2mEVkRxN7-25" value="Σημειώσεις" style="ellipse;whiteSpace=wrap;html=1;align=center;" vertex="1" parent="1">
          <mxGeometry x="1130" y="690" width="100" height="40" as="geometry" />
        </mxCell>
        <mxCell id="EnXhkpWwfhK2mEVkRxN7-27" value="id_Συνταγής" style="ellipse;whiteSpace=wrap;html=1;align=center;fontStyle=4;" vertex="1" parent="1">
          <mxGeometry x="400" y="550" width="100" height="40" as="geometry" />
        </mxCell>
        <mxCell id="EnXhkpWwfhK2mEVkRxN7-28" value="id_Εισητηριο" style="ellipse;whiteSpace=wrap;html=1;align=center;fontStyle=4;" vertex="1" parent="1">
          <mxGeometry x="480" y="740" width="110" height="40" as="geometry" />
        </mxCell>
        <mxCell id="EnXhkpWwfhK2mEVkRxN7-30" value="id_Εξητήριο" style="ellipse;whiteSpace=wrap;html=1;align=center;fontStyle=4;" vertex="1" parent="1">
          <mxGeometry x="910" y="710" width="110" height="40" as="geometry" />
        </mxCell>
        <mxCell id="EnXhkpWwfhK2mEVkRxN7-32" value="ΕΠΙΣΚΕΨΗ" style="whiteSpace=wrap;html=1;align=center;" vertex="1" parent="1">
          <mxGeometry x="230" y="480" width="100" height="40" as="geometry" />
        </mxCell>
        <mxCell id="EnXhkpWwfhK2mEVkRxN7-33" value="ΔΙΑΓΝΩΣΗ" style="whiteSpace=wrap;html=1;align=center;" vertex="1" parent="1">
          <mxGeometry x="830" y="510" width="100" height="40" as="geometry" />
        </mxCell>
        <mxCell id="EnXhkpWwfhK2mEVkRxN7-49" style="rounded=0;orthogonalLoop=1;jettySize=auto;html=1;exitX=0.5;exitY=1;exitDx=0;exitDy=0;entryX=0.5;entryY=0;entryDx=0;entryDy=0;" edge="1" parent="1" source="EnXhkpWwfhK2mEVkRxN7-34" target="EnXhkpWwfhK2mEVkRxN7-27">
          <mxGeometry relative="1" as="geometry" />
        </mxCell>
        <mxCell id="EnXhkpWwfhK2mEVkRxN7-50" style="rounded=0;orthogonalLoop=1;jettySize=auto;html=1;exitX=0.5;exitY=1;exitDx=0;exitDy=0;" edge="1" parent="1" source="EnXhkpWwfhK2mEVkRxN7-34" target="EnXhkpWwfhK2mEVkRxN7-48">
          <mxGeometry relative="1" as="geometry" />
        </mxCell>
        <mxCell id="EnXhkpWwfhK2mEVkRxN7-51" style="rounded=0;orthogonalLoop=1;jettySize=auto;html=1;exitX=0.5;exitY=1;exitDx=0;exitDy=0;" edge="1" parent="1" source="EnXhkpWwfhK2mEVkRxN7-34" target="EnXhkpWwfhK2mEVkRxN7-45">
          <mxGeometry relative="1" as="geometry" />
        </mxCell>
        <mxCell id="EnXhkpWwfhK2mEVkRxN7-52" style="rounded=0;orthogonalLoop=1;jettySize=auto;html=1;exitX=0.5;exitY=1;exitDx=0;exitDy=0;" edge="1" parent="1" source="EnXhkpWwfhK2mEVkRxN7-34" target="EnXhkpWwfhK2mEVkRxN7-17">
          <mxGeometry relative="1" as="geometry" />
        </mxCell>
        <mxCell id="EnXhkpWwfhK2mEVkRxN7-34" value="ΦΑΡΜΑΚΕΥΤΙΚΗ ΑΓΩΓΗ" style="whiteSpace=wrap;html=1;align=center;" vertex="1" parent="1">
          <mxGeometry x="540" y="480" width="100" height="40" as="geometry" />
        </mxCell>
        <mxCell id="EnXhkpWwfhK2mEVkRxN7-38" style="rounded=0;orthogonalLoop=1;jettySize=auto;html=1;exitX=0.5;exitY=1;exitDx=0;exitDy=0;entryX=0.5;entryY=0;entryDx=0;entryDy=0;" edge="1" parent="1" source="EnXhkpWwfhK2mEVkRxN7-35" target="EnXhkpWwfhK2mEVkRxN7-37">
          <mxGeometry relative="1" as="geometry" />
        </mxCell>
        <mxCell id="EnXhkpWwfhK2mEVkRxN7-35" value="ΤΥΠΟΣ ΕΞΟΔΟΥ" style="whiteSpace=wrap;html=1;align=center;" vertex="1" parent="1">
          <mxGeometry x="1175" y="470" width="100" height="40" as="geometry" />
        </mxCell>
        <mxCell id="EnXhkpWwfhK2mEVkRxN7-37" value="Τύπος" style="ellipse;whiteSpace=wrap;html=1;align=center;fontStyle=4;" vertex="1" parent="1">
          <mxGeometry x="1175" y="570" width="100" height="40" as="geometry" />
        </mxCell>
        <mxCell id="EnXhkpWwfhK2mEVkRxN7-39" value="Γιατί;" style="shape=rhombus;perimeter=rhombusPerimeter;whiteSpace=wrap;html=1;align=center;" vertex="1" parent="1">
          <mxGeometry x="1055" y="520" width="120" height="60" as="geometry" />
        </mxCell>
        <mxCell id="EnXhkpWwfhK2mEVkRxN7-43" value="" style="edgeStyle=entityRelationEdgeStyle;fontSize=12;html=1;endArrow=ERoneToMany;rounded=0;entryX=0.5;entryY=0;entryDx=0;entryDy=0;exitX=0.5;exitY=1;exitDx=0;exitDy=0;" edge="1" parent="1" source="EnXhkpWwfhK2mEVkRxN7-39" target="EnXhkpWwfhK2mEVkRxN7-14">
          <mxGeometry width="100" height="100" relative="1" as="geometry">
            <mxPoint x="980" y="650" as="sourcePoint" />
            <mxPoint x="500" y="490" as="targetPoint" />
          </mxGeometry>
        </mxCell>
        <mxCell id="EnXhkpWwfhK2mEVkRxN7-44" value="" style="edgeStyle=entityRelationEdgeStyle;fontSize=12;html=1;endArrow=ERmandOne;rounded=0;entryX=0;entryY=0.5;entryDx=0;entryDy=0;exitX=0.5;exitY=0;exitDx=0;exitDy=0;" edge="1" parent="1" source="EnXhkpWwfhK2mEVkRxN7-39" target="EnXhkpWwfhK2mEVkRxN7-35">
          <mxGeometry width="100" height="100" relative="1" as="geometry">
            <mxPoint x="400" y="590" as="sourcePoint" />
            <mxPoint x="500" y="490" as="targetPoint" />
          </mxGeometry>
        </mxCell>
        <mxCell id="EnXhkpWwfhK2mEVkRxN7-45" value="Περίοδος" style="ellipse;whiteSpace=wrap;html=1;align=center;" vertex="1" parent="1">
          <mxGeometry x="590" y="580" width="100" height="40" as="geometry" />
        </mxCell>
        <mxCell id="EnXhkpWwfhK2mEVkRxN7-46" value="Διαθέσιμα Κρεβάτια" style="ellipse;whiteSpace=wrap;html=1;align=center;dashed=1;" vertex="1" parent="1">
          <mxGeometry x="70" y="655" width="110" height="50" as="geometry" />
        </mxCell>
        <mxCell id="EnXhkpWwfhK2mEVkRxN7-47" value="Attribute" style="ellipse;whiteSpace=wrap;html=1;align=center;fontStyle=4;" vertex="1" parent="1">
          <mxGeometry x="400" y="400" width="100" height="40" as="geometry" />
        </mxCell>
        <mxCell id="EnXhkpWwfhK2mEVkRxN7-48" value="Ημερομηνία Συνταγής" style="ellipse;whiteSpace=wrap;html=1;align=center;" vertex="1" parent="1">
          <mxGeometry x="480" y="580" width="100" height="40" as="geometry" />
        </mxCell>
        <mxCell id="EnXhkpWwfhK2mEVkRxN7-54" value="Έχει" style="shape=rhombus;perimeter=rhombusPerimeter;whiteSpace=wrap;html=1;align=center;" vertex="1" parent="1">
          <mxGeometry x="300" y="190" width="120" height="60" as="geometry" />
        </mxCell>
      </root>
    </mxGraphModel>
  </diagram>
</mxfile>
